<svg width="20" height="28" viewBox="0 0 20 28" fill="none" xmlns="http://www.w3.org/2000/svg">
<g id="SVG">
<path id="Vector" d="M19.4293 18.1327L15.0543 16.2577C14.8674 16.1781 14.6597 16.1613 14.4624 16.2099C14.2652 16.2585 14.089 16.3699 13.9605 16.5272L12.023 18.8944C8.98232 17.4607 6.53524 15.0137 5.10156 11.9729L7.46875 10.0354C7.62644 9.90719 7.73804 9.73105 7.78668 9.5337C7.83531 9.33635 7.81832 9.12852 7.73828 8.94169L5.86328 4.56669C5.77543 4.36528 5.62007 4.20085 5.42397 4.10173C5.22787 4.00261 5.00332 3.97502 4.78906 4.02372L0.726562 4.96122C0.519988 5.00892 0.335682 5.12523 0.203725 5.29117C0.0717677 5.45711 -4.75863e-05 5.66288 2.36571e-08 5.87489C2.36571e-08 15.8944 8.12109 23.9999 18.125 23.9999C18.3371 24 18.5429 23.9283 18.709 23.7963C18.875 23.6643 18.9913 23.48 19.0391 23.2733L19.9766 19.2108C20.025 18.9955 19.9968 18.7701 19.8969 18.5733C19.797 18.3765 19.6317 18.2207 19.4293 18.1327Z" fill="black"/>
</g>
</svg>
