<svg width="20" height="28" viewBox="0 0 20 28" fill="none" xmlns="http://www.w3.org/2000/svg">
<g id="SVG">
<path id="Vector" d="M19.6211 11.4531C19.7734 11.332 20 11.4453 20 11.6367V19.625C20 20.6602 19.1602 21.5 18.125 21.5H1.875C0.839844 21.5 0 20.6602 0 19.625V11.6406C0 11.4453 0.222656 11.3359 0.378906 11.457C1.25391 12.1367 2.41406 13 6.39844 15.8945C7.22266 16.4961 8.61328 17.7617 10 17.7539C11.3945 17.7656 12.8125 16.4727 13.6055 15.8945C17.5898 13 18.7461 12.1328 19.6211 11.4531ZM10 16.5C10.9062 16.5156 12.2109 15.3594 12.8672 14.8828C18.0508 11.1211 18.4453 10.793 19.6406 9.85547C19.8672 9.67969 20 9.40625 20 9.11719V8.375C20 7.33984 19.1602 6.5 18.125 6.5H1.875C0.839844 6.5 0 7.33984 0 8.375V9.11719C0 9.40625 0.132812 9.67578 0.359375 9.85547C1.55469 10.7891 1.94922 11.1211 7.13281 14.8828C7.78906 15.3594 9.09375 16.5156 10 16.5Z" fill="black"/>
</g>
</svg>
