<svg width="20" height="28" viewBox="0 0 20 28" fill="none" xmlns="http://www.w3.org/2000/svg">
<g id="SVG">
<path id="Vector" d="M10 4.3125C4.64844 4.3125 0.3125 8.64844 0.3125 14C0.3125 19.3516 4.64844 23.6875 10 23.6875C15.3516 23.6875 19.6875 19.3516 19.6875 14C19.6875 8.64844 15.3516 4.3125 10 4.3125ZM13.6129 16.5391L12.8316 17.5156C12.7804 17.5797 12.717 17.6331 12.6451 17.6727C12.5732 17.7123 12.4942 17.7373 12.4126 17.7464C12.331 17.7555 12.2485 17.7484 12.1696 17.7255C12.0908 17.7027 12.0172 17.6646 11.9531 17.6133L9.33594 15.6711C9.15307 15.5247 9.00546 15.339 8.90404 15.1279C8.80262 14.9167 8.74997 14.6854 8.75 14.4512V8.375C8.75 8.20924 8.81585 8.05027 8.93306 7.93306C9.05027 7.81585 9.20924 7.75 9.375 7.75H10.625C10.7908 7.75 10.9497 7.81585 11.0669 7.93306C11.1842 8.05027 11.25 8.20924 11.25 8.375V14L13.5156 15.6602C13.5798 15.7115 13.6331 15.7749 13.6727 15.8468C13.7123 15.9188 13.7374 15.9978 13.7464 16.0795C13.7554 16.1611 13.7483 16.2437 13.7254 16.3225C13.7025 16.4014 13.6642 16.475 13.6129 16.5391Z" fill="black"/>
</g>
</svg>
